<svg id="Capa_1" data-name="Capa 1" xmlns="http://www.w3.org/2000/svg" viewBox="0 0 27.97 27.97"><defs><style>.cls-1{fill:#fff;}</style></defs><title>close</title><g id="c142_x" data-name="c142 x"><path d="M14,0A14,14,0,1,0,28,14,14,14,0,0,0,14,0Zm6,17.77L17.77,20A52,52,0,0,0,14,16.21,51.81,51.81,0,0,0,10.2,20L8,17.77A43.46,43.46,0,0,0,11.75,14C11.75,13.67,8,10.2,8,10.2L10.2,8s3.55,3.78,3.78,3.78S17.77,8,17.77,8L20,10.2A50.09,50.09,0,0,0,16.21,14C16.21,14.24,20,17.77,20,17.77Z"/></g><path class="cls-1" d="M16.21,14c0,.25,3.78,3.78,3.78,3.78L17.77,20A52,52,0,0,0,14,16.21,51.81,51.81,0,0,0,10.2,20L8,17.77A43.46,43.46,0,0,0,11.75,14C11.75,13.67,8,10.2,8,10.2L10.2,8s3.55,3.78,3.78,3.78S17.77,8,17.77,8L20,10.2A50.09,50.09,0,0,0,16.21,14Z"/></svg>